<?xml version="1.0" encoding="UTF-8"?>
<svg xmlns="http://www.w3.org/2000/svg" xmlns:xlink="http://www.w3.org/1999/xlink" viewBox="0 0 48 48" width="48px" height="48px">
<g id="surface22127255">
<path style=" stroke:none;fill-rule:nonzero;fill:rgb(99.607843%,49.019608%,36.862746%);fill-opacity:1;" d="M 37 42 L 10 42 C 7.238281 42 5 39.761719 5 37 L 5 10 C 5 7.238281 7.238281 5 10 5 L 37 5 C 39.761719 5 42 7.238281 42 10 L 42 37 C 42 39.761719 39.761719 42 37 42 Z M 37 42 "/>
<path style=" stroke:none;fill-rule:nonzero;fill:rgb(99.607843%,49.019608%,36.862746%);fill-opacity:1;" d="M 37 42 L 24 42 L 24 5 L 37 5 C 39.761719 5 42 7.238281 42 10 L 42 37 C 42 39.761719 39.761719 42 37 42 Z M 37 42 "/>
<path style=" stroke:none;fill-rule:nonzero;fill:rgb(96.078432%,96.078432%,96.078432%);fill-opacity:1;" d="M 39.808594 6.109375 L 39.800781 6.121094 L 39.730469 6.179688 C 40.429688 6.859375 40.988281 7.679688 41.378906 8.589844 C 41.390625 8.578125 41.398438 8.570312 41.410156 8.558594 C 41.429688 8.539062 41.441406 8.53125 41.460938 8.511719 C 41.070312 7.601562 40.511719 6.789062 39.808594 6.109375 Z M 20.351562 16.78125 C 18.308594 17.050781 16.371094 17.050781 14.238281 19.179688 C 10.738281 22.679688 10.300781 27.929688 14.679688 32.628906 C 17.769531 35.511719 21.089844 36.308594 24 35.53125 L 24 22.351562 L 22.371094 20.71875 L 23.738281 19.351562 L 24 19.609375 L 24 12.230469 C 22.980469 13.910156 22.871094 16.46875 20.351562 16.78125 Z M 23.921875 27.179688 L 22.539062 28.558594 L 18.488281 24.5 L 19.859375 23.128906 Z M 23.921875 27.179688 "/>
<path style=" stroke:none;fill-rule:nonzero;fill:rgb(96.078432%,96.078432%,96.078432%);fill-opacity:1;" d="M 36.550781 20.679688 C 36.550781 24.839844 31 23.179688 30.539062 26.96875 C 30.261719 29.011719 30.261719 30.949219 28.140625 33.078125 C 26.941406 34.28125 25.53125 35.121094 24 35.53125 L 24 22.351562 L 26.421875 24.78125 L 27.800781 23.398438 L 24 19.609375 L 24 12.230469 C 24.511719 11.378906 25.25 10.761719 26.640625 10.761719 C 28.339844 10.761719 25.71875 14.738281 28.699219 15.839844 C 28.929688 15.921875 29.191406 15.851562 29.371094 15.691406 C 32.890625 12.433594 36.414062 9.175781 39.9375 5.917969 C 40.226562 6.121094 40.632812 6.457031 41.007812 6.960938 C 41.378906 7.460938 41.582031 7.941406 41.691406 8.277344 C 38.453125 11.417969 34.898438 14.871094 31.660156 18 C 31.480469 18.171875 31.410156 18.441406 31.5 18.671875 C 32.628906 21.570312 36.550781 18.988281 36.550781 20.679688 Z M 36.550781 20.679688 "/>
</g>
</svg>
